HIERARCHY
ROOT hip
{
  OFFSET 0 0 0
  CHANNELS 6 Xposition Yposition Zposition Zrotation Yrotation Xrotation
  JOINT abdomen
  {
    OFFSET 0 20.6881 -0.73152
    CHANNELS 3 Zrotation Xrotation Yrotation
    JOINT chest
    {
      OFFSET 0 11.7043 -0.48768
      CHANNELS 3 Zrotation Xrotation Yrotation
      JOINT neck
      {
        OFFSET 0 22.1894 -2.19456
        CHANNELS 3 Zrotation Xrotation Yrotation
        JOINT head
        {
          OFFSET -0.24384 7.07133 1.2192
          CHANNELS 3 Zrotation Xrotation Yrotation
          JOINT leftEye
          {
            OFFSET 4.14528 8.04674 8.04672
            CHANNELS 3 Zrotation Xrotation Yrotation
            End Site
            {
              OFFSET 1 0 0
            }
          }
          JOINT rightEye
          {
            OFFSET -3.6576 8.04674 8.04672
            CHANNELS 3 Zrotation Xrotation Yrotation
            End Site
            {
              OFFSET 1 0 0
            }
          }
        }
      }
      JOINT rCollar
      {
        OFFSET -2.68224 19.2634 -4.8768
        CHANNELS 3 Zrotation Xrotation Yrotation
        JOINT rShldr
        {
          OFFSET -8.77824 -1.95073 1.46304
          CHANNELS 3 Zrotation Xrotation Yrotation
          JOINT rForeArm
          {
            OFFSET -28.1742 -1.7115 0.48768
            CHANNELS 3 Zrotation Xrotation Yrotation
            JOINT rHand
            {
              OFFSET -22.5879 0.773209 7.07136
              CHANNELS 3 Zrotation Xrotation Yrotation
              JOINT rThumb1
              {
                OFFSET -1.2192 -0.487915 3.41376
                CHANNELS 3 Zrotation Xrotation Yrotation
                JOINT rThumb2
                {
                  OFFSET -3.37035 -0.52449 3.41376
                  CHANNELS 3 Zrotation Xrotation Yrotation
                  End Site
                  {
                    OFFSET -1.78271 -1.18214 1.43049
                  }
                }
              }
              JOINT rIndex1
              {
                OFFSET -7.75947 0.938293 5.60832
                CHANNELS 3 Zrotation Xrotation Yrotation
                JOINT rIndex2
                {
                  OFFSET -2.54057 -0.884171 1.56538
                  CHANNELS 3 Zrotation Xrotation Yrotation
                  End Site
                  {
                    OFFSET -1.62519 -0.234802 1.16502
                  }
                }
              }
              JOINT rMid1
              {
                OFFSET -8.24714 1.18213 3.41376
                CHANNELS 3 Zrotation Xrotation Yrotation
                JOINT rMid2
                {
                  OFFSET -3.10165 -0.590103 1.0647
                  CHANNELS 3 Zrotation Xrotation Yrotation
                  End Site
                  {
                    OFFSET -2.48547 -0.328903 0.83742
                  }
                }
              }
              JOINT rRing1
              {
                OFFSET -8.82822 0.546677 1.51678
                CHANNELS 3 Zrotation Xrotation Yrotation
                JOINT rRing2
                {
                  OFFSET -2.60934 -0.819778 -0.0198488
                  CHANNELS 3 Zrotation Xrotation Yrotation
                  End Site
                  {
                    OFFSET -2.33842 -0.294052 0.168128
                  }
                }
              }
              JOINT rPinky1
              {
                OFFSET -8.27202 -0.0477905 -0.4584
                CHANNELS 3 Zrotation Xrotation Yrotation
                JOINT rPinky2
                {
                  OFFSET -1.82734 -0.647385 -0.700984
                  CHANNELS 3 Zrotation Xrotation Yrotation
                  End Site
                  {
                    OFFSET -1.69225 -0.51767 -0.607171
                  }
                }
              }
            }
          }
        }
      }
      JOINT lCollar
      {
        OFFSET 2.68224 19.2634 -4.8768
        CHANNELS 3 Zrotation Xrotation Yrotation
        JOINT lShldr
        {
          OFFSET 8.77824 -1.95073 1.46304
          CHANNELS 3 Zrotation Xrotation Yrotation
          JOINT lForeArm
          {
            OFFSET 28.1742 -1.7115 0.48768
            CHANNELS 3 Zrotation Xrotation Yrotation
            JOINT lHand
            {
              OFFSET 22.5879 0.773209 7.07136
              CHANNELS 3 Zrotation Xrotation Yrotation
              JOINT lThumb1
              {
                OFFSET 1.2192 -0.487915 3.41376
                CHANNELS 3 Zrotation Xrotation Yrotation
                JOINT lThumb2
                {
                  OFFSET 3.37035 -0.52449 3.41376
                  CHANNELS 3 Zrotation Xrotation Yrotation
                  End Site
                  {
                    OFFSET 1.78271 -1.18214 1.43049
                  }
                }
              }
              JOINT lIndex1
              {
                OFFSET 7.75947 0.938293 5.60832
                CHANNELS 3 Zrotation Xrotation Yrotation
                JOINT lIndex2
                {
                  OFFSET 2.54057 -0.884171 1.56538
                  CHANNELS 3 Zrotation Xrotation Yrotation
                  End Site
                  {
                    OFFSET 1.62519 -0.234802 1.16502
                  }
                }
              }
              JOINT lMid1
              {
                OFFSET 8.24714 1.18213 3.41376
                CHANNELS 3 Zrotation Xrotation Yrotation
                JOINT lMid2
                {
                  OFFSET 3.10165 -0.590103 1.0647
                  CHANNELS 3 Zrotation Xrotation Yrotation
                  End Site
                  {
                    OFFSET 2.48547 -0.328903 0.83742
                  }
                }
              }
              JOINT lRing1
              {
                OFFSET 8.82822 0.546677 1.51678
                CHANNELS 3 Zrotation Xrotation Yrotation
                JOINT lRing2
                {
                  OFFSET 2.60934 -0.819778 -0.0198488
                  CHANNELS 3 Zrotation Xrotation Yrotation
                  End Site
                  {
                    OFFSET 2.33842 -0.294052 0.168128
                  }
                }
              }
              JOINT lPinky1
              {
                OFFSET 8.27202 -0.0477905 -0.4584
                CHANNELS 3 Zrotation Xrotation Yrotation
                JOINT lPinky2
                {
                  OFFSET 1.82734 -0.647385 -0.700984
                  CHANNELS 3 Zrotation Xrotation Yrotation
                  End Site
                  {
                    OFFSET 1.69225 -0.51767 -0.607171
                  }
                }
              }
            }
          }
        }
      }
    }
  }
  JOINT rButtock
  {
    OFFSET -8.77824 4.35084 1.2192
    CHANNELS 3 Zrotation Xrotation Yrotation
    JOINT rThigh
    {
      OFFSET 0 -1.70687 -2.19456
      CHANNELS 3 Zrotation Xrotation Yrotation
      JOINT rShin
      {
        OFFSET 0 -36.8199 0.73152
        CHANNELS 3 Zrotation Xrotation Yrotation
        JOINT rFoot
        {
          OFFSET 0.73152 -45.1104 -5.12064
          CHANNELS 3 Zrotation Xrotation Yrotation
          End Site
          {
            OFFSET -1.1221 -3.69964 12.103
          }
        }
      }
    }
  }
  JOINT lButtock
  {
    OFFSET 8.77824 4.35084 1.2192
    CHANNELS 3 Zrotation Xrotation Yrotation
    JOINT lThigh
    {
      OFFSET 0 -1.70687 -2.19456
      CHANNELS 3 Zrotation Xrotation Yrotation
      JOINT lShin
      {
        OFFSET 0 -36.8199 0.73152
        CHANNELS 3 Zrotation Xrotation Yrotation
        JOINT lFoot
        {
          OFFSET -0.73152 -45.1104 -5.12064
          CHANNELS 3 Zrotation Xrotation Yrotation
          End Site
          {
            OFFSET 1.1221 -3.69964 12.103
          }
        }
      }
    }
  }
}
MOTION
Frames:	8
Frame Time:	0.00833333
24.9025 84.8855 160.585 0.0 0.0 0.0 -0.188094 -0.00125239 -0.00538539 -0.0519273 -0.00198486 -0.00899612 -3.57582e-15 -1.59028e-15 1.553e-17 -1.08027e-14 3.18055e-15 3.26131e-17 -0.0 0.0 0.0 -0.0 0.0 0.0 -1.84016e-15 -2.32951e-18 9.93923e-17 -3.46295e-14 1.05604e-16 9.93923e-16 -6.30446e-13 1.87255e-13 2.54444e-14 -7.15957e-12 -1.89193e-13 -1.90833e-14 -1.68768e-11 -4.92028e-15 3.81667e-14 -2.91287e-11 -3.18055e-15 5.725e-14 -1.68705e-11 -1.59028e-15 2.8625e-14 7.73091 5.47488 0.417314 -1.68756e-11 -4.27387e-15 3.81667e-14 2.90554 0.965183 0.102902 -1.68682e-11 -4.27387e-15 3.65764e-14 10.2786 0.731801 0.0259123 -1.6877e-11 -5.56597e-15 4.45278e-14 2.22167 -0.733487 -0.20892 -1.73808e-15 -2.32951e-18 -9.93923e-17 -4.05335e-14 1.11816e-16 -9.93923e-16 -6.46796e-13 -1.95405e-13 -2.54444e-14 -7.46019e-12 1.94064e-13 5.08889e-14 -1.75876e-11 -2.4919e-15 3.18055e-14 -3.03659e-11 -3.18055e-15 6.12257e-14 -1.75956e-11 2.78299e-15 3.81667e-14 -7.73091 5.47488 -0.417314 -1.75892e-11 -1.2921e-15 3.49861e-14 -2.90554 0.965183 -0.102902 -1.7596e-11 -1.78906e-15 3.57812e-14 -10.2786 0.731801 -0.0259123 -1.75881e-11 -3.57812e-15 3.49861e-14 -2.22167 -0.733487 0.20892 -2.03217e-16 0.0 -3.88251e-19 0.336784 -2.83766 -0.0337253 -0.0064643 -0.412348 -0.0567836 -0.478925 3.24961 0.120281 2.03217e-16 0.0 3.88251e-19 -0.623485 -3.58113 0.051656 0.00431591 0.93436 0.0368607 0.481682 2.6464 -0.108449
24.9288 79.5016 154.734 -4.6921 -48.5048 28.6608 -1.47465 -6.09332 0.576549 0.390692 0.569068 0.16465 -0.0569094 1.9192 -0.26612 1.42842 7.62034 -1.41549 -0.0 0.0 0.0 -0.0 0.0 0.0 -1.92801e-13 -2.65677e-13 -4.94676e-13 20.3726 -30.5409 -5.19591 -0.029655 -0.00714982 0.0508735 2.40799 35.6659 2.05325 1.02218e-09 -1.30242e-10 1.44752e-09 1.83992e-09 -9.46681e-11 2.25873e-09 1.02219e-09 -1.30241e-10 1.44751e-09 7.73091 5.47488 0.417314 1.02218e-09 -1.30243e-10 1.44752e-09 2.90554 0.965183 0.102902 1.02219e-09 -1.30243e-10 1.44752e-09 10.2786 0.731801 0.0259123 1.02218e-09 -1.30243e-10 1.44753e-09 2.22167 -0.733487 -0.20892 -1.92765e-13 -2.65678e-13 -4.9489e-13 -19.963 1.03458 2.4767 3.41941 -1.42266 -5.47466 -0.00959554 2.19006 -0.307004 3.04029e-09 3.5274e-10 8.4412e-10 5.25927e-09 5.86189e-10 1.43163e-09 3.04028e-09 3.52743e-10 8.4413e-10 -7.73091 5.47488 -0.417314 3.04028e-09 3.5274e-10 8.44123e-10 -2.90554 0.965183 -0.102902 3.04028e-09 3.52739e-10 8.44123e-10 -10.2786 0.731801 -0.0259123 3.04028e-09 3.52739e-10 8.44122e-10 -2.22167 -0.733487 0.20892 -2.03217e-16 0.0 -3.88251e-19 1.58341 -12.2641 -5.97435 -0.228406 14.729 0.000420685 0.94648 16.1092 -8.45413 2.03217e-16 0.0 3.88251e-19 -3.72563 -17.5546 -0.00925705 0.0870568 14.7079 -0.0779501 1.78741 -8.53265 6.62981
24.8786 79.6154 154.727 -4.7927 -48.2363 28.6622 -2.69281 -12.5295 1.20986 0.851155 1.17272 0.347034 -0.0919208 3.95297 -0.54764 3.3638 15.6696 -2.99886 -0.0 0.0 0.0 -0.0 0.0 0.0 -4.08553e-13 -5.68922e-13 -1.03994e-12 29.9194 -61.6288 -19.653 -0.0642958 -0.0155056 0.110328 -3.93443 73.0483 11.851 2.16665e-09 -2.94917e-10 3.08467e-09 3.90335e-09 -2.30284e-10 4.8173e-09 2.16666e-09 -2.9492e-10 3.08466e-09 7.73091 5.47488 0.417314 2.16665e-09 -2.94921e-10 3.08467e-09 2.90554 0.965183 0.102902 2.16666e-09 -2.94921e-10 3.08467e-09 10.2786 0.731801 0.0259123 2.16665e-09 -2.94921e-10 3.08468e-09 2.22167 -0.733487 -0.20892 -4.08588e-13 -5.68923e-13 -1.04017e-12 -41.1618 2.08174 5.10147 6.74317 -2.88524 -11.2779 0.00587612 4.47364 -0.628652 6.47364e-09 7.89975e-10 1.81662e-09 1.11987e-08 1.31561e-09 3.08177e-09 6.47363e-09 7.89976e-10 1.81663e-09 -7.73091 5.47488 -0.417314 6.47364e-09 7.89974e-10 1.81662e-09 -2.90554 0.965183 -0.102902 6.47363e-09 7.89973e-10 1.81662e-09 -10.2786 0.731801 -0.0259123 6.47364e-09 7.89975e-10 1.81662e-09 -2.22167 -0.733487 0.20892 -2.03217e-16 0.0 -3.88251e-19 0.638968 -21.8497 -12.9404 -0.500002 30.737 0.0703315 7.1085 28.6083 -19.3216 2.03217e-16 0.0 3.88251e-19 -7.03696 -32.3291 -0.0883215 0.241683 29.2651 -0.222659 6.15644 -19.8588 14.4849
24.8764 79.6368 154.732 -5.0101 -48.2869 28.6122 -3.65985 -18.2697 1.82255 1.26554 1.71111 0.512146 -0.117015 5.75711 -0.801956 5.49504 22.8028 -4.56654 -0.0 0.0 0.0 -0.0 0.0 0.0 -5.74722e-13 -7.97027e-13 -1.48423e-12 -29.2175 -76.4436 -98.0451 -0.088927 -0.0214494 0.15262 -153.307 72.2517 163.373 3.1003e-09 -3.90715e-10 4.34248e-09 5.57801e-09 -2.83998e-10 6.77607e-09 3.1003e-09 -3.9072e-10 4.34248e-09 7.73091 5.47488 0.417314 3.1003e-09 -3.90721e-10 4.34248e-09 2.90554 0.965183 0.102902 3.1003e-09 -3.90721e-10 4.34248e-09 10.2786 0.731801 0.0259123 3.10029e-09 -3.90719e-10 4.34249e-09 2.22167 -0.733487 -0.20892 -5.74818e-13 -7.97028e-13 -1.48447e-12 -60.1567 3.08053 7.4397 9.45326 -4.11238 -16.4625 0.0420154 6.56941 -0.926424 9.15603e-09 1.05822e-09 2.5323e-09 1.58385e-08 1.75857e-09 4.29477e-09 9.15602e-09 1.05822e-09 2.53231e-09 -7.73091 5.47488 -0.417314 9.15603e-09 1.05822e-09 2.5323e-09 -2.90554 0.965183 -0.102902 9.15602e-09 1.05822e-09 2.5323e-09 -10.2786 0.731801 -0.0259123 9.15603e-09 1.05822e-09 2.53229e-09 -2.22167 -0.733487 0.20892 -2.03217e-16 0.0 -3.88251e-19 -2.44128 -29.722 -20.1946 -0.787616 45.0116 0.162363 17.4657 37.7557 -31.7704 2.03217e-16 0.0 3.88251e-19 -10.047 -45.5014 -0.18489 0.464419 42.2544 -0.40518 13.0224 -29.0244 22.8913
24.9302 79.5969 154.852 -4.5038 -48.5813 27.8825 -4.27389 -22.2774 2.30714 1.57195 2.08639 0.633885 -0.15528 6.98768 -0.984816 7.23043 27.7013 -5.78945 -0.0 0.0 0.0 -0.0 0.0 0.0 -6.16931e-13 -8.37281e-13 -1.67605e-12 -61.0146 -62.7653 -141.909 -0.0885717 -0.021363 0.152006 -159.746 49.0273 170.687 3.50687e-09 -3.14318e-10 4.65196e-09 6.28073e-09 -1.3296e-10 7.23536e-09 3.50687e-09 -3.14324e-10 4.65195e-09 7.73091 5.47488 0.417314 3.50687e-09 -3.14324e-10 4.65195e-09 2.90554 0.965183 0.102902 3.50688e-09 -3.14325e-10 4.65196e-09 10.2786 0.731801 0.0259123 3.50687e-09 -3.14323e-10 4.65197e-09 2.22167 -0.733487 -0.20892 -6.17065e-13 -8.37281e-13 -1.6763e-12 -73.4687 3.97863 9.05421 11.1954 -4.90022 -20.0633 0.0831087 8.19629 -1.15991 9.961e-09 9.04009e-10 2.60594e-09 1.72296e-08 1.48539e-09 4.4149e-09 9.96099e-09 9.04006e-10 2.60596e-09 -7.73091 5.47488 -0.417314 9.961e-09 9.04006e-10 2.60594e-09 -2.90554 0.965183 -0.102902 9.961e-09 9.04006e-10 2.60594e-09 -10.2786 0.731801 -0.0259123 9.96101e-09 9.04009e-10 2.60594e-09 -2.22167 -0.733487 0.20892 -2.03217e-16 0.0 -3.88251e-19 -5.97459 -34.642 -25.9727 -1.03469 54.9527 0.269638 27.6059 42.4883 -42.1821 2.03217e-16 0.0 3.88251e-19 -12.2086 -54.6683 -0.272219 0.700489 51.3248 -0.596247 19.736 -34.5876 29.9064
25.0053 79.5828 154.894 -4.2449 -48.8388 27.5582 -4.5531 -23.8596 2.5522 1.74061 2.23345 0.69534 -0.23855 7.41654 -1.0617 7.95122 29.5088 -6.28033 -0.0 0.0 0.0 -0.0 0.0 0.0 -4.49819e-13 -5.41742e-13 -1.47978e-12 -62.3119 -55.7088 -147.443 -0.0402425 -0.00970187 0.0690325 -160.427 39.6942 171.541 3.13058e-09 1.1933e-10 3.38155e-09 5.51983e-09 4.78439e-10 5.18588e-09 3.13058e-09 1.19325e-10 3.38154e-09 7.73091 5.47488 0.417314 3.13058e-09 1.19325e-10 3.38154e-09 2.90554 0.965183 0.102902 3.13058e-09 1.19324e-10 3.38154e-09 10.2786 0.731801 0.0259123 3.13057e-09 1.19326e-10 3.38156e-09 2.22167 -0.733487 -0.20892 -4.49957e-13 -5.41739e-13 -1.48001e-12 -78.7498 4.76976 9.64732 11.8227 -5.17565 -21.4239 0.110819 9.19215 -1.30379 7.5792e-09 5.03038e-11 1.65793e-09 1.31067e-08 2.7946e-11 2.79808e-09 7.57919e-09 5.02982e-11 1.65795e-09 -7.73091 5.47488 -0.417314 7.5792e-09 5.0298e-11 1.65793e-09 -2.90554 0.965183 -0.102902 7.57919e-09 5.03003e-11 1.65793e-09 -10.2786 0.731801 -0.0259123 7.5792e-09 5.03046e-11 1.65793e-09 -2.22167 -0.733487 0.20892 -2.03217e-16 0.0 -3.88251e-19 -7.60347 -36.4807 -28.1442 -1.14978 58.8315 0.339217 32.0656 44.3857 -46.1242 2.03217e-16 0.0 3.88251e-19 -13.1354 -58.2232 -0.306004 0.823608 54.91 -0.693989 22.872 -36.6291 32.9506
25.0092 79.7156 154.844 -4.4147 -49.0487 27.6683 -4.63005 -23.7114 2.60685 1.81122 2.21751 0.713667 -0.357528 7.2728 -1.06236 7.82543 29.1218 -6.17377 -0.0 0.0 0.0 -0.0 0.0 0.0 -1.34894e-13 -9.81889e-15 -1.00793e-12 -62.2491 -56.4871 -146.662 0.0418125 0.010078 -0.0717078 -160.425 40.3977 171.553 2.19724e-09 8.02624e-10 9.94655e-10 3.71839e-09 1.41039e-09 1.36391e-09 2.19724e-09 8.02624e-10 9.94646e-10 7.73091 5.47488 0.417314 2.19724e-09 8.02622e-10 9.94653e-10 2.90554 0.965183 0.102902 2.19724e-09 8.02622e-10 9.94654e-10 10.2786 0.731801 0.0259123 2.19723e-09 8.02622e-10 9.94662e-10 2.22167 -0.733487 -0.20892 -1.35012e-13 -9.81108e-15 -1.00814e-12 -78.2659 5.48952 9.50921 11.7057 -5.11365 -21.1786 0.123338 9.73625 -1.38238 2.94771e-09 -1.29789e-09 -1.39853e-11 5.09118e-09 -2.26674e-09 -4.95741e-11 2.9477e-09 -1.2979e-09 -1.397e-11 -7.73091 5.47488 -0.417314 2.9477e-09 -1.2979e-09 -1.39947e-11 -2.90554 0.965183 -0.102902 2.9477e-09 -1.2979e-09 -1.39865e-11 -10.2786 0.731801 -0.0259123 2.94771e-09 -1.29789e-09 -1.39888e-11 -2.22167 -0.733487 0.20892 -2.03217e-16 0.0 -3.88251e-19 -7.24021 -36.4243 -27.3168 -1.13322 58.38 0.347994 31.2712 45.2268 -44.6298 2.03217e-16 0.0 3.88251e-19 -13.1517 -57.7699 -0.275585 0.811995 54.5775 -0.676672 22.5842 -36.642 32.5783
25.1397 79.4952 154.835 -4.3449 -49.1475 27.4867 -4.59347 -22.8794 2.58689 1.82635 2.13621 0.713821 -0.475549 6.89846 -1.0382 7.35899 27.8658 -5.84472 -0.0 0.0 0.0 -0.0 0.0 0.0 1.81908e-13 5.00177e-13 -4.81329e-13 -61.6136 -60.3852 -143.343 0.116626 0.0280928 -0.19989 -160.182 45.1396 171.258 1.11302e-09 1.39989e-09 -1.43529e-09 1.66537e-09 2.19264e-09 -2.51186e-09 1.11303e-09 1.3999e-09 -1.4353e-09 7.73091 5.47488 0.417314 1.11302e-09 1.39989e-09 -1.43529e-09 2.90554 0.965183 0.102902 1.11303e-09 1.39989e-09 -1.43529e-09 10.2786 0.731801 0.0259123 1.11302e-09 1.39989e-09 -1.43529e-09 2.22167 -0.733487 -0.20892 1.81819e-13 5.00189e-13 -4.81499e-13 -75.4559 6.15172 9.08313 11.289 -4.91561 -20.291 0.127783 10.0597 -1.42886 -1.69022e-09 -2.67102e-09 -1.77898e-09 -2.93625e-09 -4.60569e-09 -3.05844e-09 -1.69022e-09 -2.67103e-09 -1.77897e-09 -7.73091 5.47488 -0.417314 -1.69023e-09 -2.67103e-09 -1.779e-09 -2.90554 0.965183 -0.102902 -1.69022e-09 -2.67102e-09 -1.77898e-09 -10.2786 0.731801 -0.0259123 -1.69021e-09 -2.67102e-09 -1.77898e-09 -2.22167 -0.733487 0.20892 -2.03217e-16 0.0 -3.88251e-19 -6.09573 -35.5614 -25.3293 -1.06139 56.1895 0.328408 28.2892 45.4695 -40.9161 2.03217e-16 0.0 3.88251e-19 -12.7552 -55.7206 -0.183754 0.747211 52.677 -0.614418 20.8857 -35.8063 30.8096
